# xmcd CD database file
#
# Track frame offsets:
#	150
#	30324
#	64222
#	107571
#	150178
#	198622
#	215798
#
# Disc length: 3646 seconds
#
# Revision: 0
# Processed by: cddbd v1.5.2PL0 Copyright (c) Steve Scherf et al.
# Submitted via: CDex 1.70beta2
#
DISCID=590e3c07
DTITLE=Schiller - Future (Limited Ultra Deluxe Edition) Disc 4
DYEAR=2016
DGENRE=New Age
TTITLE0=Tal Des Himmels Eins
TTITLE1=Tal Des Himmels Zwei
TTITLE2=Tal Des Himmels Drei
TTITLE3=Tal Des Himmels Vier
TTITLE4=Tal Des Himmels Fünf
TTITLE5=Tal Des Himmels Sechs
TTITLE6=Tal Des Himmels Sieben
EXTD=YEAR: 2016
EXTT0=
EXTT1=
EXTT2=
EXTT3=
EXTT4=
EXTT5=
EXTT6=
PLAYORDER=
